<?xml version="1.0" standalone="no"?>
<!DOCTYPE svg PUBLIC "-//W3C//DTD SVG 20010904//EN"
 "http://www.w3.org/TR/2001/REC-SVG-20010904/DTD/svg10.dtd">
<svg version="1.0" xmlns="http://www.w3.org/2000/svg"
 width="512.000000pt" height="512.000000pt" viewBox="0 0 512.000000 512.000000"
 preserveAspectRatio="xMidYMid meet">
<metadata>
Created by potrace 1.11, written by Peter Selinger 2001-2013
</metadata>
<g transform="translate(0.000000,512.000000) scale(0.100000,-0.100000)"
fill="#000000" stroke="none">
<path d="M3143 3760 c1 -77 -2 -140 -6 -140 -5 0 -5 -5 -1 -12 4 -6 6 -36 5
-65 l-2 -53 219 0 219 0 0 205 0 205 -218 0 -219 0 3 -140z"/>
<path d="M4128 3620 c-107 -14 -232 -75 -310 -152 -123 -121 -178 -252 -179
-430 -1 -44 -5 -68 -12 -68 -18 -1 -1009 -1 -1032 -1 -19 1 -20 7 -19 253 1
284 -2 301 -58 312 -58 10 -176 -5 -274 -35 -75 -23 -197 -78 -202 -90 -2 -5
-9 -9 -14 -9 -17 0 -118 -79 -171 -134 -63 -65 -128 -157 -163 -231 -16 -33
-30 -62 -31 -64 -1 -2 -282 -3 -625 -3 -715 1 -698 2 -777 -76 -100 -99 -103
-205 -15 -472 67 -202 202 -417 355 -567 86 -84 180 -160 232 -188 20 -11 37
-23 37 -27 0 -5 4 -8 9 -8 5 0 37 -16 70 -35 34 -19 62 -34 64 -34 1 0 16 -5
32 -11 17 -7 56 -22 88 -34 48 -19 56 -25 44 -35 -19 -15 -28 -49 -16 -57 5
-3 7 -9 4 -14 -7 -11 72 -81 128 -114 94 -56 144 -69 272 -72 127 -4 166 3
260 47 61 28 106 60 165 116 57 55 97 58 144 11 57 -58 91 -84 141 -110 114
-59 133 -63 260 -63 148 0 167 4 269 53 101 50 173 116 167 155 0 4 5 7 11 8
205 11 526 145 724 303 61 48 220 210 254 256 78 110 155 242 186 317 1 3 29
4 64 3 49 -1 231 9 263 15 22 3 56 13 78 20 21 8 39 12 39 9 0 -2 30 15 68 38
162 101 262 260 278 442 6 70 5 76 -18 99 l-24 24 -275 1 c-151 1 -288 1 -305
2 l-31 0 0 298 c0 215 -3 304 -12 320 -12 22 -50 43 -74 41 -7 -1 -38 -5 -69
-9z m4 -453 c0 -288 0 -295 22 -321 l22 -28 302 -1 c166 0 302 -2 302 -5 0
-17 -27 -93 -44 -124 -51 -92 -185 -191 -273 -203 -15 -2 -28 -4 -28 -5 0 -1
-82 -3 -181 -4 -138 -1 -186 -5 -198 -15 -10 -8 -43 -69 -75 -135 -66 -137
-151 -258 -255 -362 -69 -69 -221 -188 -261 -205 -11 -4 -33 -17 -50 -28 -16
-12 -37 -21 -45 -21 -9 0 -21 -5 -28 -12 -6 -6 -17 -13 -24 -15 -7 -1 -56 -17
-109 -35 -109 -37 -106 -36 -157 -44 -20 -3 -46 -8 -56 -11 -11 -3 -45 -7 -77
-9 l-57 -3 -228 228 c-126 125 -249 239 -274 254 -43 24 -106 40 -160 39 -25
0 -93 -9 -97 -13 -2 -1 -7 -2 -11 -3 -29 -4 -116 -72 -146 -113 -71 -98 -82
-219 -30 -333 14 -30 25 -57 25 -59 -1 -10 -31 -9 -31 0 0 6 -5 7 -10 4 -16
-10 -110 -12 -110 -2 0 4 -5 5 -12 1 -21 -13 -277 -5 -363 12 -11 2 -31 6 -45
9 -14 3 -34 7 -46 9 -55 11 -215 71 -286 106 -124 63 -225 137 -334 246 -141
141 -257 324 -314 494 -26 76 -24 71 -46 177 -20 96 -11 131 40 162 30 18 60
19 694 19 757 -1 681 -11 727 100 75 179 204 314 376 395 79 38 136 55 204 64
l42 5 1 -250 c0 -138 3 -259 6 -270 14 -44 22 -45 653 -44 329 0 611 1 626 1
16 1 39 12 52 26 24 23 25 31 25 137 0 109 2 128 15 192 6 30 39 99 58 123 38
46 107 108 142 126 43 22 118 47 124 41 2 -2 4 -136 3 -297z m-1882 -1219 c8
-1 29 -11 45 -23 35 -26 485 -475 485 -484 0 -24 -191 -85 -238 -76 -9 1 -39
6 -67 9 -99 14 -170 61 -316 210 -111 113 -133 152 -125 220 10 82 104 162
176 148 14 -2 32 -4 40 -4z m-770 -514 c19 -2 97 -4 173 -5 75 0 135 -5 132
-9 -11 -19 -135 -51 -196 -51 -80 -1 -109 5 -181 38 -71 33 -75 48 -10 38 26
-4 63 -9 82 -11z"/>
<path d="M1031 2699 c-71 -15 -93 -89 -42 -140 31 -31 55 -36 94 -18 87 40 41
179 -52 158z"/>
<path d="M1719 2539 c-23 -9 -49 -45 -49 -69 0 -4 16 -42 36 -84 42 -90 64
-189 60 -271 -4 -70 -15 -136 -26 -150 -5 -5 -9 -13 -9 -17 -1 -5 -13 -34 -28
-65 -14 -32 -28 -67 -30 -78 -7 -38 26 -75 72 -80 46 -5 105 84 147 223 24 84
30 243 11 327 -21 93 -71 209 -105 244 -32 33 -39 35 -79 20z"/>
<path d="M1554 2434 c-54 -28 -57 -59 -14 -148 16 -34 29 -71 29 -81 0 -11 0
-48 1 -83 0 -34 -4 -71 -10 -82 -6 -11 -8 -20 -5 -20 3 0 -6 -22 -20 -50 -14
-27 -25 -61 -25 -74 0 -61 90 -89 129 -40 66 84 100 239 78 354 -4 25 -10 56
-13 70 -3 14 -17 49 -31 77 -40 81 -72 101 -119 77z"/>
<path d="M1384 2330 c-12 -5 -26 -22 -32 -39 -9 -25 -7 -39 8 -74 24 -51 25
-112 5 -151 -23 -43 -24 -68 -7 -98 10 -17 27 -29 50 -33 30 -6 39 -2 62 22
60 62 79 202 40 290 -37 84 -70 106 -126 83z"/>
<path d="M3142 3309 c1 -69 -2 -131 -6 -137 -4 -7 -4 -12 1 -12 4 0 8 -13 8
-30 0 -16 -4 -30 -8 -30 -5 0 -5 -6 0 -12 4 -7 6 -24 5 -38 l-3 -25 208 2
c114 0 213 2 220 2 8 1 11 56 10 203 l-2 202 -217 1 -218 0 2 -126z"/>
<path d="M2639 3428 c0 -2 -2 -94 -2 -205 l-2 -201 220 0 220 0 1 204 0 204
-218 0 c-120 0 -218 -1 -219 -2z"/>
</g>
</svg>
