<?xml version="1.0" encoding="UTF-8"?>
<svg width="512" height="288" xmlns="http://www.w3.org/2000/svg" xmlns:svg="http://www.w3.org/2000/svg">

 <g>
  <title>Layer 1</title>
  <g id="svg_1">
   <g id="svg_2">
    <g id="svg_3">
     <circle id="svg_4" fill="#086213" r="9.250999" cy="137.834" cx="93.121"/>
     <path id="svg_5" fill="#086213" d="m164.031006,146.697998c-3.753998,2.386002 -4.862,7.363998 -2.474991,11.117996c6.041,9.501999 9.235001,20.508011 9.235001,31.827011c-0.001007,11.320007 -3.194,22.324982 -9.235001,31.825989c-2.386002,3.753998 -1.278,8.731995 2.474991,11.118011c1.340012,0.852997 2.835007,1.259003 4.314011,1.259003c2.662994,0 5.269989,-1.320007 6.804993,-3.734009c7.684998,-12.088013 11.748001,-26.080994 11.749008,-40.46701c0,-14.384979 -4.063004,-28.378998 -11.749008,-40.468994c-2.387009,-3.755997 -7.364014,-4.865997 -11.119003,-2.477997z"/>
     <path id="svg_6" fill="#086213" d="m140.121002,171.395996c-2.387009,-3.752991 -7.365005,-4.862 -11.119003,-2.473999c-3.752998,2.386993 -4.861,7.36499 -2.473999,11.118988c1.820999,2.864014 2.783997,6.184021 2.783997,9.60202s-0.96199,6.738983 -2.783997,9.600983c-2.387001,3.753021 -1.279999,8.731018 2.473007,11.118011c1.339996,0.852997 2.835999,1.26001 4.314987,1.26001c2.662003,0 5.269012,-1.320007 6.803009,-3.733002c3.468002,-5.451019 5.300995,-11.761017 5.300995,-18.247009c0.001007,-6.484985 -1.830994,-12.795013 -5.298996,-18.246002z"/>
     <path id="svg_7" fill="#086213" d="m509.641998,102.496002c-1.510986,-1.511002 -3.55899,-2.359009 -5.695984,-2.359009l-62.633026,0l0,-62.634995c0,-4.447998 -3.60498,-8.054001 -8.053986,-8.054001c-0.002014,0 0,0 -0.002014,0c-33.765991,0 -61.242981,27.475006 -61.244995,61.244003l0,9.444l-114.227997,0l0,-53.160995c0,-4.448013 -3.606003,-8.054001 -8.054001,-8.054001c-40.071991,0 -75.651993,24.367004 -90.302994,61.214996l-131.629002,0c-15.328,0.001999 -27.798,12.473999 -27.798,27.802994c0,1.063004 0.062,2.139999 0.184,3.202011c0.01,0.08699 0.021,0.173996 0.034,0.259995c5.466,37 24.091999,70.967987 52.449999,95.64801c16.377998,14.254974 35.397003,24.839996 55.789001,31.296997l-0.876999,0.876984c-1.511002,1.51001 -2.359001,3.559021 -2.359001,5.695007c0,2.135986 0.848,4.184998 2.359001,5.696014c11.942001,11.940979 27.621994,17.909973 43.307999,17.908997c15.681,-0.001007 31.369003,-5.971008 43.307007,-17.90802l4.910995,-4.91098l7.610992,0l4.911011,4.910004c11.567001,11.567993 26.947998,17.937988 43.306992,17.937988s31.740997,-6.369995 43.308014,-17.937988c1.510986,-1.511017 2.358978,-3.559021 2.358978,-5.696014c0,-0.125 -0.013,-0.247986 -0.018982,-0.372986c26.395996,-3.169006 51.449982,-12.909027 73.160004,-28.596008c23.554993,-17.019012 41.792999,-39.929016 53.007996,-66.513l24.005981,0c33.769012,0 61.243011,-27.475006 61.243011,-61.24501c0,-2.136002 -0.847992,-4.18399 -2.358002,-5.694992zm-384.467995,161.915009l1.475998,-1.476013c9.624992,1.826019 19.458,2.771027 29.381004,2.771027l18.580994,0c-15.154999,9.363983 -34.688995,8.936981 -49.437996,-1.295013zm129.758995,8.033997c-12.056992,0 -23.390991,-4.695007 -31.916,-13.220001l-18.477997,-18.47699c-7.229996,-7.230011 -7.229996,-18.993011 0,-26.223999c3.501999,-3.502014 8.158997,-5.431 13.110001,-5.431c4.953003,0 9.608002,1.928986 13.110001,5.431l49.891998,49.890991c-7.496002,5.220001 -16.393005,8.029999 -25.718002,8.029999zm195.82399,-119.116013l-29.450989,0c-3.34201,0 -6.335999,2.063995 -7.527008,5.186996c-20.113007,52.799011 -69.132996,88.222992 -125.35199,90.894012l-46.276016,-46.276001c-6.543991,-6.544006 -15.246002,-10.150024 -24.500992,-10.150024s-17.957001,3.604004 -24.501007,10.14801c-12.692001,12.694 -13.457001,32.86499 -2.300003,46.463013l-34.814987,0c-34.127007,0 -67.07901,-12.322998 -92.787006,-34.697998c-25.424,-22.127014 -42.136,-52.563019 -47.069,-85.709015c-0.046,-0.416 -0.068001,-0.837006 -0.068001,-1.25c0,-6.446991 5.244001,-11.692001 11.690001,-11.692001l137.266996,0c3.475998,0 6.559006,-2.231003 7.649002,-5.530991c10.137009,-30.731003 37.270996,-52.158005 68.960007,-55.28801l0,52.764999c0,4.447998 3.605988,8.054001 8.054001,8.054001l130.335007,0c4.448975,0 8.053986,-3.606003 8.053986,-8.054001l0,-17.498001c0.002014,-22.140991 16.024994,-40.608994 37.084015,-44.416992l0,61.916c0,2.136002 0.847992,4.184998 2.358002,5.694992c1.510986,1.511002 3.55899,2.359009 5.695984,2.359009l61.912994,0c-3.805969,21.059006 -22.27298,37.082001 -44.412994,37.082001z"/>
     <path id="svg_8" fill="#086213" d="m157.656006,160.27301c-2.386993,-3.753998 -7.36499,-4.862 -11.119003,-2.475006c-3.752991,2.386993 -4.862,7.365021 -2.474991,11.119019c3.934006,6.185974 6.013,13.352997 6.013,20.72699s-2.078995,14.540985 -6.013,20.72699c-2.386002,3.753998 -1.278,8.731995 2.474991,11.119019c1.340012,0.85199 2.836014,1.259003 4.314011,1.259003c2.662994,0 5.270004,-1.320007 6.804001,-3.734009c5.578995,-8.774017 8.526993,-18.929993 8.526993,-29.371002c0.000992,-10.44101 -2.948013,-20.597015 -8.526001,-29.371002z"/>
    </g>
   </g>
  </g>
  <g id="svg_9"/>
  <g id="svg_10"/>
  <g id="svg_11"/>
  <g id="svg_12"/>
  <g id="svg_13"/>
  <g id="svg_14"/>
  <g id="svg_15"/>
  <g id="svg_16"/>
  <g id="svg_17"/>
  <g id="svg_18"/>
  <g id="svg_19"/>
  <g id="svg_20"/>
  <g id="svg_21"/>
  <g id="svg_22"/>
  <g id="svg_23"/>
  <rect id="svg_27" height="39" width="42" y="53" x="267" stroke-linecap="null" stroke-linejoin="null" stroke-dasharray="null" stroke-width="5" stroke="#086213" fill="#086213"/>
  <rect id="svg_29" height="39" width="42" y="52.5" x="321" stroke-linecap="null" stroke-linejoin="null" stroke-dasharray="null" stroke-width="5" stroke="#086213" fill="#086213"/>
  <rect id="svg_30" height="39" width="42" y="2.5" x="321" stroke-linecap="null" stroke-linejoin="null" stroke-dasharray="null" stroke-width="5" stroke="#086213" fill="#086213"/>
 </g>
</svg>